<?xml version="1.0" encoding="utf-8"?>
<!-- Generator: Adobe Illustrator 27.6.1, SVG Export Plug-In . SVG Version: 6.00 Build 0)  -->
<svg version="1.1" xmlns="http://www.w3.org/2000/svg" xmlns:xlink="http://www.w3.org/1999/xlink" x="0px" y="0px"
	 viewBox="0 0 153.07 153.07" style="enable-background:new 0 0 153.07 153.07;" xml:space="preserve">
<g>
	<path d="M88.81,9.19c5.08,1.35,7.67,5.23,9.74,9.62c0.77,1.64,1.22,3.37,1.11,5.21c-0.08,1.31-0.67,2.24-1.89,2.77
		c-1.63,0.7-3.37,0.87-5.1,1.09c-2.21,0.28-4.41,0.51-6.65,0.21c-3.93-0.53-7.02-3.07-7.95-6.55c-0.45-1.68-0.18-3.27,0.45-4.82
		c1.44-3.57,3.78-6.25,7.59-7.41c0.1-0.03,0.18-0.08,0.27-0.13C87.18,9.19,88,9.19,88.81,9.19z"/>
	<path d="M73.18,81.53c-3,0-5.12,0.08-7.25,0.19c-0.76,0.04-1.17,0.47-1.6,0.99c-3.64,4.47-7.92,8.32-12.1,12.26
		c-6.81,6.4-14.61,11.27-23.28,14.74c-3.21,1.28-6.55,2.09-10.03,2.25c-0.84,0.04-1.67-0.03-2.5-0.16
		c-1.18-0.19-1.59-0.56-1.73-1.76c-0.19-1.58,0.31-3.06,0.92-4.48c1.12-2.62,2.85-4.84,4.68-6.98c5.73-6.68,12.52-12.08,20.11-16.48
		c5.5-3.19,11.09-6.22,16.99-8.6c3.01-1.21,6.11-2.16,9.25-2.96c0.57-0.14,0.99-0.41,1.34-0.89C73.02,62.85,78.67,56.61,85,51
		c0.78-0.69,0.79-0.72-0.12-1.28c-4.11-2.55-7.97-5.49-12.19-7.86c-2.28-1.28-4.67-2.31-7.19-3.02c-2.8-0.79-5.53-0.74-8.26,0.33
		c-3.68,1.45-7.14,3.25-9.99,6.06c-1.54,1.52-2.19,3.43-2.36,5.53c-0.04,0.45-0.04,0.91,0,1.37c0.14,1.58-0.56,2.71-1.83,3.59
		c-1.87,1.29-3.98,2.1-6.05,2.97c-2.2,0.92-4.44,1.72-6.79,2.13c-0.25,0.04-0.5,0.08-0.75,0.07c-1.03-0.05-1.5-0.71-1.23-1.7
		c0.26-0.94,0.84-1.73,1.33-2.55c1.78-2.99,4.02-5.65,6.31-8.26c3.87-4.41,8.27-8.2,13.38-11.1c4.68-2.66,9.6-4.65,15.01-5.29
		c5.48-0.65,10.85-0.18,16.16,1.31c5.43,1.52,10.62,3.68,15.78,5.89c1.97,0.85,3.34,0.65,4.96-0.62c2.15-1.69,4.53-3.06,7.08-4.09
		c2.75-1.1,5.51-1.15,8.3-0.14c3.51,1.28,4.88,4.36,3.44,7.81c-0.68,1.64-1.76,3.03-2.99,4.27c-2.56,2.61-5.23,5.08-8.46,6.86
		c-2.47,1.36-5.08,2.29-7.92,2.4c-2.31,0.09-4.52-0.47-6.67-1.27c-1.12-0.42-2.2-0.9-3.25-1.46c-0.4-0.21-0.66-0.16-1,0.15
		c-5.12,4.79-9.62,10.13-14.02,15.56c-0.09,0.11-0.23,0.28-0.2,0.38c0.06,0.22,0.29,0.14,0.46,0.14
		c14.84,0.08,27.6,5.88,39.28,14.48c8.63,6.35,15.19,14.52,20.15,23.99c0.95,1.82,1.86,3.66,2.52,5.6c0.29,0.84,0.53,1.7,0.41,2.6
		c-0.15,1.13-0.76,1.59-1.88,1.47c-0.8-0.09-1.5-0.43-2.21-0.76c-3.1-1.45-5.77-3.55-8.47-5.61c-2.2-1.67-4.44-3.28-6.37-5.28
		c-0.39-0.4-0.74-0.83-1.1-1.25c-1.24-1.47-1.59-3.1-0.97-4.96c0.36-1.07,0.8-2.15,0.57-3.33c-0.47-2.45-2.06-4.13-3.97-5.54
		c-2.62-1.93-5.65-3.04-8.67-4.15c-4.75-1.75-9.71-2.64-14.7-3.35c-3.71-0.52-7.42-1.03-11.15-1.32
		C77.01,81.59,74.66,81.52,73.18,81.53z M57.38,82.8c-0.58,0.09-0.93,0.13-1.27,0.19c-7.87,1.57-15.37,4.19-22.39,8.1
		c-3.31,1.84-6.49,3.87-8.84,6.94c-1.54,2-2.83,4.14-3.28,6.68c-0.21,1.17,0.41,1.99,1.58,2.14c0.71,0.09,1.41,0.07,2.11-0.1
		c3.51-0.81,6.6-2.54,9.63-4.38c8.06-4.9,14.94-11.17,21.21-18.16C56.5,83.8,56.86,83.39,57.38,82.8z M103.71,41.66
		c0.23,0.24,0.49,0.25,0.72,0.31c1.56,0.44,3.15,0.72,4.77,0.84c2.43,0.17,4.73-0.21,6.85-1.48c0.52-0.31,1-0.69,1.34-1.21
		c0.51-0.76,0.36-1.33-0.47-1.71c-0.7-0.32-1.44-0.45-2.21-0.48c-3.4-0.1-6.43,1.1-9.34,2.7C104.81,40.95,104.21,41.21,103.71,41.66
		z"/>
	<path d="M59.29,131.31c0.58,0.23,1.08,0.4,1.55,0.61c3.54,1.6,3.96,5.58,0.86,7.92c-1.32,1-2.83,1.48-4.44,1.58
		c-5.16,0.34-10.32,0.1-15.48,0.18c-0.76,0.01-0.7-0.48-0.7-0.97c0-4.96,0-9.92,0-14.88c0-0.91,0.02-1.82,0-2.73
		c-0.01-0.58,0.24-0.81,0.82-0.8c4.71,0.06,9.41-0.14,14.12,0.15c1.93,0.12,3.74,0.62,5.18,2.05c1.81,1.8,1.68,4.25-0.31,5.88
		C60.41,130.69,59.86,130.94,59.29,131.31z M51.29,138.05c0-0.02,0-0.03,0-0.05c1.21,0,2.43,0.01,3.64,0
		c0.72-0.01,1.4-0.18,2.02-0.55c1.23-0.75,1.35-2.27,0.26-3.19c-0.5-0.42-1.1-0.63-1.73-0.71c-2.72-0.34-5.45-0.15-8.18-0.2
		c-0.5-0.01-0.56,0.3-0.56,0.7c0.01,1.09,0.03,2.18-0.01,3.26c-0.02,0.57,0.21,0.76,0.76,0.75
		C48.76,138.04,50.03,138.05,51.29,138.05z M51.02,125.75c-1.19,0-2.38,0.01-3.57-0.01c-0.51-0.01-0.73,0.18-0.71,0.71
		c0.03,0.83,0.04,1.67,0,2.5c-0.04,0.66,0.18,0.89,0.86,0.88c2.07-0.04,4.15-0.03,6.22-0.04c0.54,0,1.06-0.11,1.56-0.27
		c1.02-0.33,1.59-0.99,1.58-1.81c-0.01-0.86-0.6-1.49-1.7-1.77c-0.34-0.09-0.7-0.15-1.05-0.15"/>
	<path d="M29.59,125.86c-0.28-0.16-0.56-0.09-0.83-0.09c-3.34-0.01-6.68,0-10.03,0c-1.12,0-1.12,0-1.12-1.15
		c0-0.56,0.02-1.11,0-1.67c-0.02-0.52,0.19-0.74,0.71-0.73c0.94,0.02,1.87,0,2.81,0c5.06,0,10.13,0,15.19,0
		c1.04,0,1.08,0.04,1.09,1.05c0.02,2.12,0.03,2.12-1.56,3.52c-3.99,3.51-7.99,7.01-11.98,10.53c-0.2,0.17-0.47,0.3-0.52,0.62
		c0.29,0.19,0.6,0.1,0.89,0.1c4.05,0.01,8.1,0.01,12.15,0c1.79,0,1.52-0.01,1.54,1.5c0.01,0.48-0.01,0.96,0,1.44
		c0.01,0.41-0.17,0.61-0.59,0.59c-0.18-0.01-0.35,0-0.53,0c-6.58,0-13.17,0-19.75,0c-1.09,0-1.09,0-1.09-1.1
		c-0.01-2.64,0.02-2.6,1.99-4.32c3.86-3.35,7.68-6.75,11.51-10.13C29.52,126,29.55,125.93,29.59,125.86z"/>
	<path d="M77.98,135.85c2.44,1.28,3.81,3.45,5.5,5.28c0.33,0.36,0.12,0.47-0.25,0.47c-1.22,0-2.43-0.01-3.65,0
		c-0.44,0-0.68-0.27-0.94-0.56c-1.07-1.15-2.15-2.28-3.21-3.44c-0.92-1-2.03-1.44-3.39-1.39c-0.64,0.02-0.92,0.2-0.9,0.87
		c0.04,1.21-0.01,2.43,0.02,3.64c0.02,0.65-0.21,0.92-0.88,0.88c-0.78-0.05-1.57-0.03-2.35,0c-0.57,0.02-0.75-0.23-0.75-0.77
		c0.01-3.9,0.01-7.8,0-11.69c0-0.44,0.11-0.73,0.64-0.72c3.52,0.08,7.04-0.19,10.55,0.17c1.26,0.13,2.42,0.56,3.22,1.64
		c1.19,1.6,0.8,3.6-0.89,4.67C79.91,135.4,79.04,135.63,77.98,135.85z M73.78,130.82c-0.76,0-1.34,0.02-1.92-0.01
		c-0.47-0.02-0.71,0.14-0.7,0.64c0.02,0.61,0.02,1.21,0,1.82c-0.01,0.45,0.19,0.63,0.64,0.62c1.11-0.02,2.23,0.05,3.33-0.03
		c0.72-0.05,1.47,0,2.16-0.3c0.53-0.22,0.89-0.62,0.91-1.2c0.02-0.59-0.35-0.99-0.86-1.22c-0.25-0.11-0.53-0.17-0.8-0.2
		C75.57,130.85,74.59,130.77,73.78,130.82z"/>
	<path d="M115.06,132.47c-0.25,0-0.51-0.03-0.76,0.01c-0.6,0.08-1.01-0.08-1.24-0.7c-0.2-0.53-0.68-0.81-1.21-0.95
		c-1.17-0.3-2.36-0.29-3.53,0.02c-0.48,0.13-1.06,0.27-1.06,0.91c0,0.59,0.56,0.74,1.01,0.89c1.47,0.48,3.02,0.63,4.53,0.95
		c0.99,0.21,1.98,0.45,2.88,0.92c2.66,1.37,2.81,4.47,0.3,6.1c-0.93,0.61-1.99,0.87-3.07,1.03c-2.05,0.3-4.09,0.29-6.1-0.24
		c-1.81-0.48-3.22-1.46-3.85-3.32c-0.29-0.86-0.24-0.94,0.65-1.01c0.78-0.06,1.57-0.08,2.35-0.16c0.42-0.04,0.65,0.08,0.8,0.49
		c0.36,0.96,1.11,1.49,2.08,1.71c1.08,0.24,2.16,0.21,3.24,0.02c0.42-0.07,0.82-0.24,1.18-0.51c0.84-0.64,0.76-1.44-0.21-1.86
		c-0.84-0.37-1.76-0.48-2.65-0.64c-1.22-0.22-2.44-0.43-3.63-0.8c-0.83-0.26-1.61-0.6-2.26-1.2c-1.42-1.3-1.4-3.18,0.06-4.44
		c0.89-0.77,1.96-1.13,3.11-1.32c2.23-0.37,4.45-0.35,6.6,0.38c1.37,0.46,2.47,1.26,2.87,2.77c0.16,0.62-0.05,0.85-0.63,0.86
		c-0.48,0.01-0.96,0-1.44,0C115.06,132.43,115.06,132.45,115.06,132.47z"/>
	<path d="M135.34,135.02c0,1.87-0.04,3.75,0.02,5.62c0.02,0.79-0.25,1.03-1,0.97c-0.7-0.05-1.42-0.04-2.13,0
		c-0.59,0.03-0.81-0.18-0.8-0.79c0.03-1.34-0.01-2.68,0.02-4.03c0.01-0.6-0.15-0.87-0.8-0.85c-1.77,0.03-3.55,0.03-5.32,0
		c-0.59-0.01-0.81,0.18-0.8,0.78c0.03,1.34-0.02,2.68,0.02,4.03c0.02,0.68-0.24,0.89-0.89,0.85c-0.73-0.04-1.47-0.04-2.2,0
		c-0.62,0.03-0.84-0.2-0.84-0.83c0.02-3.04,0.01-6.08,0.01-9.12c0-0.84,0.02-1.67,0-2.51c-0.01-0.5,0.15-0.75,0.69-0.73
		c0.83,0.03,1.67,0.03,2.51,0c0.53-0.02,0.72,0.19,0.71,0.71c-0.02,1.16,0.02,2.33-0.01,3.49c-0.02,0.6,0.15,0.87,0.8,0.85
		c1.77-0.03,3.55-0.03,5.32,0c0.59,0.01,0.81-0.18,0.8-0.78c-0.04-1.16,0.01-2.33-0.02-3.49c-0.02-0.6,0.22-0.81,0.8-0.78
		c0.76,0.03,1.52,0.04,2.28,0c0.62-0.03,0.85,0.19,0.84,0.82C135.32,131.17,135.34,133.09,135.34,135.02z"/>
	<path d="M96.21,133.13c0-1.32,0.01-2.63-0.01-3.95c-0.01-0.55,0.2-0.78,0.76-0.76c0.86,0.03,1.72,0.02,2.58,0.01
		c0.41,0,0.62,0.17,0.62,0.58c-0.02,2.93,0.14,5.87-0.15,8.8c-0.17,1.69-1.16,2.75-2.71,3.35c-1.71,0.66-3.5,0.75-5.31,0.66
		c-1.34-0.07-2.67-0.2-3.91-0.79c-1.5-0.71-2.38-1.84-2.52-3.51c-0.23-2.81-0.09-5.62-0.12-8.43c-0.01-0.48,0.21-0.68,0.7-0.66
		c0.76,0.02,1.52,0.05,2.28-0.01c0.76-0.06,1.03,0.2,1.01,0.98c-0.04,2.08-0.02,4.15-0.02,6.23c0,0.28,0,0.56,0,0.84
		c0.04,1.84,0.64,2.57,2.45,2.86c0.9,0.14,1.82,0.12,2.71-0.12c1.04-0.29,1.57-0.94,1.6-2.04c0.03-1.34,0.01-2.68,0.01-4.03
		C96.19,133.13,96.2,133.13,96.21,133.13z"/>
</g>
</svg>
